<mxfile host="app.diagrams.net" agent="Mozilla/5.0 (Windows NT 10.0; Win64; x64; rv:144.0) Gecko/20100101 Firefox/144.0" version="28.2.8">
  <diagram name="Page-1" id="NMaz05yjN8kHPzHithWi">
    <mxGraphModel dx="1426" dy="751" grid="1" gridSize="10" guides="1" tooltips="1" connect="1" arrows="1" fold="1" page="1" pageScale="1" pageWidth="850" pageHeight="1100" math="0" shadow="0">
      <root>
        <mxCell id="0" />
        <mxCell id="1" parent="0" />
        <mxCell id="XiD7VJWgcppmck7Jvtt_-3" value="&lt;div&gt;&lt;font style=&quot;font-size: 22px;&quot;&gt;VirtualBox Hypervisor&lt;/font&gt;&lt;/div&gt;&lt;div&gt;&lt;br&gt;&lt;/div&gt;&lt;div&gt;&lt;br&gt;&lt;/div&gt;&lt;div&gt;&lt;br&gt;&lt;/div&gt;&lt;div&gt;&lt;br&gt;&lt;/div&gt;&lt;div&gt;&lt;br&gt;&lt;/div&gt;&lt;div&gt;&lt;br&gt;&lt;/div&gt;&lt;div&gt;&lt;br&gt;&lt;/div&gt;&lt;div&gt;&lt;br&gt;&lt;/div&gt;&lt;div&gt;&lt;br&gt;&lt;/div&gt;&lt;div&gt;&lt;br&gt;&lt;/div&gt;&lt;div&gt;&lt;br&gt;&lt;/div&gt;&lt;div&gt;&lt;br&gt;&lt;/div&gt;&lt;div&gt;&lt;br&gt;&lt;/div&gt;&lt;div&gt;&lt;br&gt;&lt;/div&gt;&lt;div&gt;&lt;br&gt;&lt;/div&gt;&lt;div&gt;&lt;br&gt;&lt;/div&gt;&lt;div&gt;&lt;br&gt;&lt;/div&gt;&lt;div&gt;&lt;br&gt;&lt;/div&gt;&lt;div&gt;&lt;br&gt;&lt;/div&gt;&lt;div&gt;&lt;br&gt;&lt;/div&gt;&lt;div&gt;&lt;font style=&quot;font-size: 22px;&quot;&gt;&lt;br&gt;&lt;/font&gt;&lt;/div&gt;&lt;div&gt;&lt;font style=&quot;font-size: 22px;&quot;&gt;&lt;br&gt;&lt;/font&gt;&lt;/div&gt;&lt;div&gt;&lt;font style=&quot;font-size: 22px;&quot;&gt;&lt;br&gt;&lt;/font&gt;&lt;/div&gt;&lt;div&gt;&lt;font style=&quot;font-size: 22px;&quot;&gt;&lt;br&gt;&lt;/font&gt;&lt;/div&gt;&lt;div&gt;&lt;font style=&quot;font-size: 22px;&quot;&gt;&lt;br&gt;&lt;/font&gt;&lt;/div&gt;&lt;div&gt;&lt;font style=&quot;font-size: 22px;&quot;&gt;&lt;br&gt;&lt;/font&gt;&lt;/div&gt;&lt;div&gt;&lt;font style=&quot;font-size: 22px;&quot;&gt;&lt;br&gt;&lt;/font&gt;&lt;/div&gt;&lt;div&gt;&lt;font style=&quot;font-size: 22px;&quot;&gt;Host Machine&lt;/font&gt;&lt;/div&gt;" style="rounded=1;whiteSpace=wrap;html=1;absoluteArcSize=1;arcSize=14;strokeWidth=2;" vertex="1" parent="1">
          <mxGeometry x="160" y="190" width="610" height="540" as="geometry" />
        </mxCell>
        <mxCell id="XiD7VJWgcppmck7Jvtt_-5" value="&lt;div&gt;&lt;font style=&quot;font-size: 16px;&quot;&gt;Ubuntu Machine&lt;/font&gt;&lt;/div&gt;&lt;div&gt;&lt;font style=&quot;font-size: 16px;&quot;&gt;(LAN)&lt;/font&gt;&lt;/div&gt;" style="strokeWidth=2;html=1;shape=mxgraph.flowchart.start_1;whiteSpace=wrap;" vertex="1" parent="1">
          <mxGeometry x="380" y="570" width="135" height="80" as="geometry" />
        </mxCell>
        <mxCell id="XiD7VJWgcppmck7Jvtt_-9" value="&lt;div&gt;Home Network&lt;/div&gt;&lt;div&gt;(WAN)&lt;/div&gt;" style="rounded=1;whiteSpace=wrap;html=1;absoluteArcSize=1;arcSize=14;strokeWidth=2;" vertex="1" parent="1">
          <mxGeometry x="60" y="20" width="150" height="100" as="geometry" />
        </mxCell>
        <mxCell id="XiD7VJWgcppmck7Jvtt_-11" value="&lt;div&gt;Ubuntu Machine&lt;/div&gt;&lt;div&gt;(DMZ)&lt;/div&gt;" style="rounded=1;whiteSpace=wrap;html=1;absoluteArcSize=1;arcSize=14;strokeWidth=2;" vertex="1" parent="1">
          <mxGeometry x="600" y="370" width="160" height="100" as="geometry" />
        </mxCell>
        <mxCell id="XiD7VJWgcppmck7Jvtt_-13" value="Adapter 1" style="endArrow=classic;startArrow=classic;html=1;rounded=0;exitX=0.5;exitY=0;exitDx=0;exitDy=0;exitPerimeter=0;" edge="1" parent="1" source="XiD7VJWgcppmck7Jvtt_-5" target="XiD7VJWgcppmck7Jvtt_-4">
          <mxGeometry width="50" height="50" relative="1" as="geometry">
            <mxPoint x="448" y="480" as="sourcePoint" />
            <mxPoint x="430" y="340" as="targetPoint" />
          </mxGeometry>
        </mxCell>
        <mxCell id="XiD7VJWgcppmck7Jvtt_-4" value="&lt;font style=&quot;font-size: 20px;&quot;&gt;PfSense&lt;/font&gt;" style="strokeWidth=2;html=1;shape=mxgraph.flowchart.start_1;whiteSpace=wrap;" vertex="1" parent="1">
          <mxGeometry x="380" y="380" width="130" height="70" as="geometry" />
        </mxCell>
        <mxCell id="XiD7VJWgcppmck7Jvtt_-15" value="Adapter 2" style="endArrow=classic;startArrow=classic;html=1;rounded=0;entryX=0.96;entryY=1.03;entryDx=0;entryDy=0;entryPerimeter=0;exitX=0.015;exitY=0.314;exitDx=0;exitDy=0;exitPerimeter=0;" edge="1" parent="1" source="XiD7VJWgcppmck7Jvtt_-4" target="XiD7VJWgcppmck7Jvtt_-9">
          <mxGeometry width="50" height="50" relative="1" as="geometry">
            <mxPoint x="300" y="300" as="sourcePoint" />
            <mxPoint x="350" y="250" as="targetPoint" />
          </mxGeometry>
        </mxCell>
        <mxCell id="XiD7VJWgcppmck7Jvtt_-16" value="Adapter 3" style="endArrow=classic;startArrow=classic;html=1;rounded=0;entryX=0.013;entryY=0.44;entryDx=0;entryDy=0;entryPerimeter=0;exitX=0.992;exitY=0.686;exitDx=0;exitDy=0;exitPerimeter=0;" edge="1" parent="1" target="XiD7VJWgcppmck7Jvtt_-11">
          <mxGeometry width="50" height="50" relative="1" as="geometry">
            <mxPoint x="508.00000000000006" y="414.5" as="sourcePoint" />
            <mxPoint x="590" y="415.48" as="targetPoint" />
          </mxGeometry>
        </mxCell>
      </root>
    </mxGraphModel>
  </diagram>
</mxfile>
